<svg width="32" height="32" viewBox="0 0 32 32" fill="none" xmlns="http://www.w3.org/2000/svg">
<path d="M28.7903 5.16364L22.1091 5.14425L22.4388 4.94546C22.6667 4.80486 22.7831 4.54304 22.7346 4.28122C22.7249 4.22304 22.7055 4.1697 22.6764 4.11637C22.7007 4.0291 22.7055 3.93213 22.6861 3.83516C22.6328 3.57334 22.434 3.3697 22.1673 3.32607L11.5928 1.43516C11.1031 1.34789 10.594 1.44486 10.1673 1.70183L1.4158 7.03031C1.18308 7.17092 1.06671 7.43273 1.1152 7.6994C1.12489 7.75758 1.14429 7.81092 1.17338 7.8594C1.14914 7.94667 1.14429 8.04364 1.16368 8.14061C1.21702 8.40243 1.4158 8.60607 1.68247 8.65455L2.60368 8.8194C2.62308 9.4497 2.62308 9.84243 2.62792 10.2158C2.62792 10.6618 2.62792 11.1224 2.66671 11.9758C2.16732 12.1406 1.76489 12.5479 1.5855 13.023C1.35762 13.6242 1.46429 14.3612 2.15762 14.7976C2.12368 16.1697 1.67277 17.5418 0.863076 18.657C0.751561 18.8073 0.712773 18.9964 0.751561 19.1806C0.790348 19.3649 0.911561 19.5249 1.07156 19.6218C1.29944 19.7527 1.54671 19.9079 1.77944 20.0582C2.03641 20.223 2.30792 20.3976 2.56974 20.5479C2.67156 20.6061 2.77823 20.6303 2.88974 20.6303C3.12247 20.6303 3.3455 20.5091 3.47156 20.2958C4.48489 18.5649 4.73217 16.48 4.17459 14.6667C4.35883 14.5115 4.50914 14.3176 4.60611 14.0946C4.77095 13.7115 4.76126 13.2606 4.58671 12.8485C4.41217 12.4509 4.09702 12.1406 3.71883 12C3.59762 11.9564 3.48126 11.9273 3.36489 11.9079C3.33095 11.0885 3.33095 10.6424 3.33095 10.2109C3.33095 9.85698 3.33095 9.49819 3.31156 8.94061L4.39277 9.13455L5.45459 14.8897C5.50308 15.1515 5.5855 15.4036 5.69701 15.6364C5.69217 15.6218 5.68247 15.6073 5.67762 15.5927V24.3879C5.67762 25.76 6.79277 26.8752 8.16489 26.88L16.1067 26.8994C15.8207 27.7091 15.394 28.4849 14.8413 29.1588C14.6231 29.4255 14.5746 29.7842 14.72 30.0946C14.8655 30.4 15.1661 30.5939 15.5103 30.5939H21.3285C21.6679 30.5939 21.9734 30.4049 22.1188 30.0946C22.2643 29.7842 22.2207 29.4206 21.9976 29.1588C21.4497 28.4897 21.0231 27.7236 20.737 26.9139L28.7807 26.9333H28.7855C29.4497 26.9333 30.0703 26.6764 30.5455 26.2061C31.0207 25.7358 31.2776 25.1103 31.2776 24.4412V24.0194C31.2776 24 31.2776 23.9806 31.2776 23.9612V7.65576C31.2728 6.28849 30.1576 5.16849 28.7903 5.16364ZM2.8752 19.9176C2.63762 19.7818 2.39035 19.6218 2.14792 19.4667C1.9152 19.3164 1.67762 19.1661 1.44489 19.0303C2.27398 17.8715 2.75398 16.4703 2.83641 15.0546C2.90914 15.0642 2.98186 15.0691 3.05459 15.0691C3.21459 15.0691 3.37944 15.0449 3.53459 15.0012C3.98065 16.5867 3.75277 18.3952 2.8752 19.9176ZM3.46671 12.6546C3.6655 12.7273 3.8352 12.9018 3.93217 13.1249C4.03398 13.3576 4.04368 13.6146 3.95156 13.8182C3.76732 14.2497 3.19035 14.4873 2.74429 14.3127C2.00732 14.0267 2.16247 13.44 2.2255 13.2655C2.36611 12.9018 2.71035 12.5915 3.13217 12.5915C3.24368 12.5964 3.3552 12.6158 3.46671 12.6546ZM11.0207 5.70183C11.0158 5.68728 11.011 5.67758 11.0061 5.66304C11.011 5.62425 11.0207 5.59516 11.0303 5.56122C11.1128 5.2897 11.3988 4.9794 11.8207 4.94546C12.3103 4.90667 12.8728 5.1297 13.0522 5.43516C13.1055 5.52728 13.1588 5.67758 12.9988 5.91516C12.8194 6.17698 12.4364 6.36122 12.0243 6.38546C11.6994 6.40001 11.3891 6.31758 11.1952 6.15273C11.0982 6.07516 11.0497 5.98304 11.0255 5.90061C11.0352 5.83758 11.04 5.7697 11.0207 5.70183ZM11.937 7.08364H12.0582C12.6885 7.0497 13.2752 6.75395 13.5758 6.30789C13.8522 5.90061 13.8813 5.4691 13.6534 5.08607C13.3382 4.54304 12.5237 4.18425 11.7576 4.25213C11.1128 4.31031 10.5503 4.75152 10.3613 5.35758C10.3419 5.42061 10.3273 5.4788 10.3176 5.54183C9.1055 5.88607 7.88368 6.27395 6.70065 6.65698C5.52247 7.03516 4.31035 7.42789 3.10792 7.76243L1.9152 7.5491L10.5358 2.30304C10.817 2.13334 11.1516 2.07031 11.4764 2.12849L21.8958 3.98546L13.2703 9.23152C12.9891 9.40122 12.6594 9.46425 12.3297 9.40607L4.64489 8.03879C5.40611 7.80607 6.16732 7.56364 6.90914 7.32122C8.05338 6.95273 9.23156 6.57455 10.3952 6.24001C10.4728 6.4097 10.5843 6.56486 10.7394 6.69092C11.0449 6.94304 11.4764 7.08364 11.937 7.08364ZM5.68247 12.257C5.67762 12.2279 5.66792 12.2036 5.65823 12.1794L5.12005 9.27031L12.2522 10.5455C12.3734 10.5649 12.4946 10.5794 12.6158 10.5794C12.9891 10.5794 13.3576 10.4776 13.6825 10.2788L19.5249 6.72486L19.9419 9.02789C20.0922 9.86182 19.777 10.7297 19.1225 11.2873C18.0461 12.2036 16.6885 12.9455 15.1952 13.4352C13.4594 14.0024 11.4473 14.2836 9.05701 14.2885H9.04247C8.46065 14.2885 7.93701 14.24 7.48611 14.143C6.56489 13.9442 5.86186 13.2073 5.68247 12.257ZM6.03156 14.177C6.40004 14.4921 6.84126 14.72 7.3358 14.8218C7.83035 14.9285 8.40732 14.9818 9.03762 14.9818H9.05701C11.5249 14.977 13.6049 14.6861 15.4134 14.0946C17.0134 13.5661 18.4146 12.8 19.5782 11.8109C19.8691 11.5636 20.1116 11.263 20.291 10.9382L20.3976 11.5297C20.5479 12.3636 20.2328 13.2315 19.5782 13.7891C18.5019 14.7055 17.1443 15.4473 15.651 15.937C13.9103 16.5091 11.9031 16.7855 9.51277 16.7903C8.92611 16.7903 8.39277 16.7418 7.93702 16.6449C7.02065 16.4509 6.31762 15.7091 6.14308 14.7588L6.03156 14.177ZM21.0813 11.4085L20.4849 8.11637L28.3007 8.13576V20.0582H8.64489V17.4546C8.91156 17.4739 9.19277 17.4885 9.48853 17.4885H9.50792C11.9758 17.4836 14.0558 17.1927 15.8643 16.6012C17.4643 16.0776 18.8655 15.3067 20.0291 14.3176C20.8728 13.6049 21.2752 12.4849 21.0813 11.4085ZM21.4497 29.6C21.5176 29.6824 21.4885 29.7649 21.474 29.7939C21.4594 29.8327 21.411 29.8909 21.3188 29.8909H15.5007C15.4037 29.8909 15.36 29.8279 15.3407 29.7939C15.3261 29.7649 15.3019 29.6776 15.3697 29.6C16.0243 28.8049 16.5188 27.8739 16.8291 26.9043L19.9952 26.9139C20.3055 27.8836 20.8 28.8049 21.4497 29.6ZM30.5697 23.9661C30.5697 24.4461 30.3855 24.897 30.0413 25.2364C29.7019 25.5758 29.2461 25.7503 28.771 25.76L8.1552 25.7018C7.17095 25.7018 6.36611 24.897 6.36611 23.9127V23.1176H30.5649V23.9661H30.5697ZM30.5746 22.4146H6.37095V16.5867C6.76368 16.9552 7.24368 17.217 7.78671 17.3285C7.84004 17.3382 7.89338 17.3479 7.94671 17.3576V20.4073C7.94671 20.6012 8.10186 20.7564 8.2958 20.7564H28.6497C28.8388 20.7564 28.9988 20.6012 28.9988 20.4073V7.78667C28.9988 7.59758 28.8437 7.43758 28.6497 7.43758L20.3588 7.41334L20.1649 6.32728L20.9649 5.83758L28.7855 5.85698C29.7697 5.85698 30.5697 6.66183 30.5697 7.64607V22.4146H30.5746Z" fill="white"/>
<path d="M18.5552 25.0036C18.7783 24.9697 18.9722 24.8097 19.0546 24.6012C19.1371 24.3927 19.1031 24.1455 18.9722 23.9612C18.8413 23.777 18.6183 23.6655 18.3952 23.6655C18.2449 23.6655 18.0946 23.7091 17.988 23.8109C17.7601 24.0243 17.7989 24.5673 17.9928 24.7903C18.1334 24.9503 18.3516 25.0327 18.5552 25.0036Z" fill="white"/>
<path d="M14.8025 4.06304L17.7843 4.77577C17.8085 4.78062 17.8279 4.78547 17.8521 4.78547C17.9831 4.78547 18.1043 4.69335 18.1334 4.56244C18.1722 4.40729 18.0752 4.24728 17.92 4.21335L14.9382 3.50062C14.7831 3.46183 14.6231 3.5588 14.5891 3.71395C14.5503 3.8691 14.6473 4.02425 14.8025 4.06304Z" fill="white"/>
<path d="M18.628 5.10062L18.7589 5.16849C18.8025 5.18789 18.8461 5.19759 18.8898 5.19759C18.9965 5.19759 19.0983 5.1394 19.1516 5.03759C19.2243 4.89213 19.1661 4.71759 19.0207 4.64486L18.8849 4.57698C18.7395 4.50425 18.5649 4.56243 18.4922 4.70789C18.4243 4.85334 18.4825 5.02789 18.628 5.10062Z" fill="white"/>
<path d="M7.37459 12.8243C7.69943 13.0133 8.06792 13.1006 8.38307 13.1588C8.95034 13.2655 9.53216 13.3188 10.1091 13.3188C10.2449 13.3188 10.3806 13.3139 10.5164 13.3091C10.6764 13.3043 10.8025 13.1636 10.7928 13.0036C10.7879 12.8436 10.6473 12.7224 10.4873 12.7273C9.81822 12.7564 9.14428 12.7079 8.48974 12.5818C8.20852 12.5285 7.91762 12.4606 7.66549 12.3152C7.42792 12.1746 7.25822 11.9758 7.20974 11.7673C7.17095 11.6121 7.01095 11.5152 6.8558 11.5539C6.70065 11.5927 6.60368 11.7527 6.64246 11.9079C6.73459 12.2715 7.00125 12.6061 7.37459 12.8243Z" fill="white"/>
<path d="M11.908 13.217H12.1068C12.2668 13.217 12.3977 13.0861 12.3977 12.9261C12.3977 12.7661 12.2668 12.6352 12.1068 12.6352H11.908C11.748 12.6352 11.6171 12.7661 11.6171 12.9261C11.6171 13.0861 11.748 13.217 11.908 13.217Z" fill="white"/>
</svg>
