<svg width="32" height="32" viewBox="0 0 32 32" fill="none" xmlns="http://www.w3.org/2000/svg">
<path d="M18.6048 22.784C18.5715 21.9725 18.2285 21.12 18.6048 20.224C18.9978 20.727 18.7533 22.1197 18.6048 22.784Z" fill="#F8981B"/>
<path d="M26.4589 11.6621C26.4525 10.9696 25.9815 10.697 25.5002 10.2195C24.2701 9.04576 24.5889 9.34912 23.6199 8.42752C13.993 -0.234242 17.5578 0.158718 11.4765 5.71136C9.47206 7.6928 8.67462 8.48512 7.60454 9.536C6.61254 10.6509 5.69734 10.8864 5.83302 12.0678C5.98278 27.1245 4.52614 26.1248 7.96294 26.2298C15.5879 26.0006 13.5873 27.8605 13.7972 20.9549C13.7844 19.8029 13.7639 18.7686 13.7421 17.4502C13.7255 17.3875 13.7716 17.44 13.9828 17.4195C20.0577 17.3043 18.0916 16.8755 18.6625 18.944C18.5985 18.4717 18.9185 17.1328 18.5805 17.0931C16.7053 17.0381 16.0705 17.0176 14.0007 16.9741C13.3735 16.9459 13.2545 16.9178 13.266 17.449C13.2084 20.777 13.1905 22.1696 13.1713 25.4093C13.2212 25.7229 13.0522 25.5014 12.3751 25.5603C11.2231 25.5526 9.65126 25.5603 9.02278 25.5603C5.68326 25.5834 6.33478 25.9776 6.20678 23.3843C6.10438 18.313 6.05318 16.4262 6.06598 12.105C5.86246 11.2474 6.6663 10.839 7.70054 9.82144C8.92678 8.68864 9.88166 7.808 12.1204 5.7472C16.6068 1.83424 15.4164 1.664 17.2583 3.38816C18.2362 4.33792 21.3364 7.34208 22.2337 8.2112C23.4663 9.57056 25.6154 11.104 25.6372 11.7594C25.6372 16.1472 25.705 20.8589 25.7652 25.1994C25.6039 25.9584 24.4954 25.5552 23.369 25.6845C22.217 25.6986 20.2394 25.7587 18.7201 25.7997C18.7111 25.3453 18.665 23.1693 18.5741 24.4314C18.7021 25.1174 18.0941 26.1248 19.0106 26.0096C23.0209 26.0096 25.0842 26.4346 25.9572 25.9149C26.7009 25.1648 26.2132 22.9709 26.3873 21.088C26.4282 18.1158 26.4513 14.9363 26.4589 11.6621Z" fill="#F8981B"/>
</svg>
